<?xml version="1.0" encoding="UTF-8" standalone="no"?>
<!DOCTYPE svg PUBLIC "-//W3C//DTD SVG 1.1//EN"
 "http://www.w3.org/Graphics/SVG/1.1/DTD/svg11.dtd">
<!-- Generated by graphviz version 2.38.0 (20140413.2041)
 -->
<!-- Title: %3 Pages: 1 -->
<svg width="1230pt" height="620pt"
 viewBox="0.00 0.00 1230.00 620.00" xmlns="http://www.w3.org/2000/svg" xmlns:xlink="http://www.w3.org/1999/xlink">
<g id="graph0" class="graph" transform="scale(1 1) rotate(0) translate(4 616)">
<title>%3</title>
<polygon fill="white" stroke="none" points="-4,4 -4,-616 1226,-616 1226,4 -4,4"/>
<!-- 1 -->
<g id="node1" class="node"><title>1</title>
<ellipse fill="none" stroke="black" cx="419" cy="-594" rx="55.7903" ry="18"/>
<text text-anchor="middle" x="419" y="-590.3" font-family="Times,serif" font-size="14.00">ASCITES=1</text>
</g>
<!-- 2 -->
<g id="node2" class="node"><title>2</title>
<ellipse fill="none" stroke="black" cx="315" cy="-522" rx="70.6878" ry="18"/>
<text text-anchor="middle" x="315" y="-518.3" font-family="Times,serif" font-size="14.00">HISTOLOGY=1</text>
</g>
<!-- 1&#45;&gt;2 -->
<g id="edge1" class="edge"><title>1&#45;&gt;2</title>
<path fill="none" stroke="black" d="M395.919,-577.465C381.579,-567.813 362.938,-555.266 347.162,-544.647"/>
<polygon fill="black" stroke="black" points="348.988,-541.657 338.737,-538.977 345.079,-547.465 348.988,-541.657"/>
</g>
<!-- 3 -->
<g id="node3" class="node"><title>3</title>
<ellipse fill="none" stroke="black" cx="524" cy="-522" rx="50.0912" ry="18"/>
<text text-anchor="middle" x="524" y="-518.3" font-family="Times,serif" font-size="14.00">AGE&lt;36.5</text>
</g>
<!-- 1&#45;&gt;3 -->
<g id="edge2" class="edge"><title>1&#45;&gt;3</title>
<path fill="none" stroke="black" d="M442.303,-577.465C457.086,-567.609 476.399,-554.734 492.535,-543.977"/>
<polygon fill="black" stroke="black" points="494.744,-546.71 501.124,-538.251 490.862,-540.886 494.744,-546.71"/>
</g>
<!-- 4 -->
<g id="node4" class="node"><title>4</title>
<ellipse fill="none" stroke="black" cx="99" cy="-450" rx="76.0865" ry="18"/>
<text text-anchor="middle" x="99" y="-446.3" font-family="Times,serif" font-size="14.00">BILIRUBIN&lt;3.05</text>
</g>
<!-- 2&#45;&gt;4 -->
<g id="edge3" class="edge"><title>2&#45;&gt;4</title>
<path fill="none" stroke="black" d="M273.097,-507.42C238.41,-496.179 188.943,-480.148 151.597,-468.045"/>
<polygon fill="black" stroke="black" points="152.487,-464.654 141.895,-464.901 150.328,-471.313 152.487,-464.654"/>
</g>
<!-- 5 -->
<g id="node5" class="node"><title>5</title>
<ellipse fill="none" stroke="black" cx="315" cy="-450" rx="100.983" ry="18"/>
<text text-anchor="middle" x="315" y="-446.3" font-family="Times,serif" font-size="14.00">ALK&#45;PHOSPHATE&lt;173</text>
</g>
<!-- 2&#45;&gt;5 -->
<g id="edge4" class="edge"><title>2&#45;&gt;5</title>
<path fill="none" stroke="black" d="M315,-503.697C315,-495.983 315,-486.712 315,-478.112"/>
<polygon fill="black" stroke="black" points="318.5,-478.104 315,-468.104 311.5,-478.104 318.5,-478.104"/>
</g>
<!-- 6 -->
<g id="node20" class="node"><title>6</title>
<ellipse fill="none" stroke="black" cx="524" cy="-450" rx="59.5901" ry="18"/>
<text text-anchor="middle" x="524" y="-446.3" font-family="Times,serif" font-size="14.00">MALAISE=1</text>
</g>
<!-- 3&#45;&gt;6 -->
<g id="edge19" class="edge"><title>3&#45;&gt;6</title>
<path fill="none" stroke="black" d="M524,-503.697C524,-495.983 524,-486.712 524,-478.112"/>
<polygon fill="black" stroke="black" points="527.5,-478.104 524,-468.104 520.5,-478.104 527.5,-478.104"/>
</g>
<!-- 7 -->
<g id="node21" class="node"><title>7</title>
<ellipse fill="none" stroke="black" cx="697" cy="-450" rx="55.7903" ry="18"/>
<text text-anchor="middle" x="697" y="-446.3" font-family="Times,serif" font-size="14.00">SPIDERS=1</text>
</g>
<!-- 3&#45;&gt;7 -->
<g id="edge20" class="edge"><title>3&#45;&gt;7</title>
<path fill="none" stroke="black" d="M556.135,-507.998C583.733,-496.831 623.747,-480.64 654.082,-468.366"/>
<polygon fill="black" stroke="black" points="655.606,-471.525 663.563,-464.529 652.98,-465.036 655.606,-471.525"/>
</g>
<!-- 8 -->
<g id="node6" class="node"><title>8</title>
<polygon fill="none" stroke="black" points="54,-396 0,-396 0,-360 54,-360 54,-396"/>
<text text-anchor="middle" x="27" y="-374.3" font-family="Times,serif" font-size="14.00">2</text>
</g>
<!-- 4&#45;&gt;8 -->
<g id="edge5" class="edge"><title>4&#45;&gt;8</title>
<path fill="none" stroke="black" d="M81.937,-432.411C72.9898,-423.712 61.8609,-412.893 51.964,-403.271"/>
<polygon fill="black" stroke="black" points="54.3022,-400.662 44.6924,-396.201 49.4226,-405.681 54.3022,-400.662"/>
</g>
<!-- 9 -->
<g id="node7" class="node"><title>9</title>
<polygon fill="none" stroke="black" points="126,-396 72,-396 72,-360 126,-360 126,-396"/>
<text text-anchor="middle" x="99" y="-374.3" font-family="Times,serif" font-size="14.00">1</text>
</g>
<!-- 4&#45;&gt;9 -->
<g id="edge6" class="edge"><title>4&#45;&gt;9</title>
<path fill="none" stroke="black" d="M99,-431.697C99,-423.983 99,-414.712 99,-406.112"/>
<polygon fill="black" stroke="black" points="102.5,-406.104 99,-396.104 95.5001,-406.104 102.5,-406.104"/>
</g>
<!-- 10 -->
<g id="node8" class="node"><title>10</title>
<ellipse fill="none" stroke="black" cx="217" cy="-378" rx="73.387" ry="18"/>
<text text-anchor="middle" x="217" y="-374.3" font-family="Times,serif" font-size="14.00">ALBUMIN&lt;3.75</text>
</g>
<!-- 5&#45;&gt;10 -->
<g id="edge7" class="edge"><title>5&#45;&gt;10</title>
<path fill="none" stroke="black" d="M291.775,-432.411C278.745,-423.103 262.314,-411.367 248.176,-401.268"/>
<polygon fill="black" stroke="black" points="249.892,-398.193 239.72,-395.228 245.823,-403.889 249.892,-398.193"/>
</g>
<!-- 11 -->
<g id="node9" class="node"><title>11</title>
<polygon fill="none" stroke="black" points="362,-396 308,-396 308,-360 362,-360 362,-396"/>
<text text-anchor="middle" x="335" y="-374.3" font-family="Times,serif" font-size="14.00">2</text>
</g>
<!-- 5&#45;&gt;11 -->
<g id="edge8" class="edge"><title>5&#45;&gt;11</title>
<path fill="none" stroke="black" d="M319.944,-431.697C322.172,-423.898 324.855,-414.509 327.335,-405.829"/>
<polygon fill="black" stroke="black" points="330.731,-406.681 330.113,-396.104 324,-404.758 330.731,-406.681"/>
</g>
<!-- 20 -->
<g id="node10" class="node"><title>20</title>
<ellipse fill="none" stroke="black" cx="114" cy="-306" rx="57.6901" ry="18"/>
<text text-anchor="middle" x="114" y="-302.3" font-family="Times,serif" font-size="14.00">VARICES=1</text>
</g>
<!-- 10&#45;&gt;20 -->
<g id="edge9" class="edge"><title>10&#45;&gt;20</title>
<path fill="none" stroke="black" d="M193.37,-360.941C179.269,-351.358 161.181,-339.065 145.834,-328.635"/>
<polygon fill="black" stroke="black" points="147.403,-325.47 137.165,-322.743 143.469,-331.259 147.403,-325.47"/>
</g>
<!-- 21 -->
<g id="node11" class="node"><title>21</title>
<polygon fill="none" stroke="black" points="244,-324 190,-324 190,-288 244,-288 244,-324"/>
<text text-anchor="middle" x="217" y="-302.3" font-family="Times,serif" font-size="14.00">2</text>
</g>
<!-- 10&#45;&gt;21 -->
<g id="edge10" class="edge"><title>10&#45;&gt;21</title>
<path fill="none" stroke="black" d="M217,-359.697C217,-351.983 217,-342.712 217,-334.112"/>
<polygon fill="black" stroke="black" points="220.5,-334.104 217,-324.104 213.5,-334.104 220.5,-334.104"/>
</g>
<!-- 40 -->
<g id="node12" class="node"><title>40</title>
<polygon fill="none" stroke="black" points="97,-252 43,-252 43,-216 97,-216 97,-252"/>
<text text-anchor="middle" x="70" y="-230.3" font-family="Times,serif" font-size="14.00">1</text>
</g>
<!-- 20&#45;&gt;40 -->
<g id="edge11" class="edge"><title>20&#45;&gt;40</title>
<path fill="none" stroke="black" d="M103.349,-288.055C98.2367,-279.922 91.9988,-269.998 86.3068,-260.943"/>
<polygon fill="black" stroke="black" points="89.1438,-258.879 80.8588,-252.275 83.2173,-262.604 89.1438,-258.879"/>
</g>
<!-- 41 -->
<g id="node13" class="node"><title>41</title>
<ellipse fill="none" stroke="black" cx="165" cy="-234" rx="50.0912" ry="18"/>
<text text-anchor="middle" x="165" y="-230.3" font-family="Times,serif" font-size="14.00">AGE&lt;26.5</text>
</g>
<!-- 20&#45;&gt;41 -->
<g id="edge12" class="edge"><title>20&#45;&gt;41</title>
<path fill="none" stroke="black" d="M126.346,-288.055C132.485,-279.629 140.025,-269.28 146.81,-259.966"/>
<polygon fill="black" stroke="black" points="149.708,-261.932 152.768,-251.789 144.051,-257.81 149.708,-261.932"/>
</g>
<!-- 82 -->
<g id="node14" class="node"><title>82</title>
<polygon fill="none" stroke="black" points="140,-180 86,-180 86,-144 140,-144 140,-180"/>
<text text-anchor="middle" x="113" y="-158.3" font-family="Times,serif" font-size="14.00">2</text>
</g>
<!-- 41&#45;&gt;82 -->
<g id="edge13" class="edge"><title>41&#45;&gt;82</title>
<path fill="none" stroke="black" d="M152.677,-216.411C146.514,-208.115 138.919,-197.891 132.029,-188.615"/>
<polygon fill="black" stroke="black" points="134.733,-186.387 125.96,-180.447 129.114,-190.561 134.733,-186.387"/>
</g>
<!-- 83 -->
<g id="node15" class="node"><title>83</title>
<ellipse fill="none" stroke="black" cx="261" cy="-162" rx="103.182" ry="18"/>
<text text-anchor="middle" x="261" y="-158.3" font-family="Times,serif" font-size="14.00">ALK&#45;PHOSPHATE&lt;92.5</text>
</g>
<!-- 41&#45;&gt;83 -->
<g id="edge14" class="edge"><title>41&#45;&gt;83</title>
<path fill="none" stroke="black" d="M186.306,-217.465C199.143,-208.104 215.715,-196.021 229.986,-185.614"/>
<polygon fill="black" stroke="black" points="232.06,-188.434 238.078,-179.714 227.936,-182.778 232.06,-188.434"/>
</g>
<!-- 166 -->
<g id="node16" class="node"><title>166</title>
<ellipse fill="none" stroke="black" cx="187" cy="-90" rx="103.182" ry="18"/>
<text text-anchor="middle" x="187" y="-86.3" font-family="Times,serif" font-size="14.00">ALK&#45;PHOSPHATE&lt;83.5</text>
</g>
<!-- 83&#45;&gt;166 -->
<g id="edge15" class="edge"><title>83&#45;&gt;166</title>
<path fill="none" stroke="black" d="M243.087,-144.055C233.815,-135.285 222.342,-124.432 212.193,-114.831"/>
<polygon fill="black" stroke="black" points="214.418,-112.118 204.748,-107.789 209.608,-117.204 214.418,-112.118"/>
</g>
<!-- 167 -->
<g id="node17" class="node"><title>167</title>
<polygon fill="none" stroke="black" points="362,-108 308,-108 308,-72 362,-72 362,-108"/>
<text text-anchor="middle" x="335" y="-86.3" font-family="Times,serif" font-size="14.00">1</text>
</g>
<!-- 83&#45;&gt;167 -->
<g id="edge16" class="edge"><title>83&#45;&gt;167</title>
<path fill="none" stroke="black" d="M278.913,-144.055C288.117,-135.349 299.489,-124.591 309.583,-115.043"/>
<polygon fill="black" stroke="black" points="312.136,-117.446 316.995,-108.032 307.325,-112.361 312.136,-117.446"/>
</g>
<!-- 332 -->
<g id="node18" class="node"><title>332</title>
<polygon fill="none" stroke="black" points="178,-36 124,-36 124,-0 178,-0 178,-36"/>
<text text-anchor="middle" x="151" y="-14.3" font-family="Times,serif" font-size="14.00">1</text>
</g>
<!-- 166&#45;&gt;332 -->
<g id="edge17" class="edge"><title>166&#45;&gt;332</title>
<path fill="none" stroke="black" d="M178.285,-72.055C174.146,-64.0067 169.105,-54.2046 164.488,-45.2259"/>
<polygon fill="black" stroke="black" points="167.57,-43.5675 159.884,-36.2753 161.345,-46.7689 167.57,-43.5675"/>
</g>
<!-- 333 -->
<g id="node19" class="node"><title>333</title>
<polygon fill="none" stroke="black" points="250,-36 196,-36 196,-0 250,-0 250,-36"/>
<text text-anchor="middle" x="223" y="-14.3" font-family="Times,serif" font-size="14.00">2</text>
</g>
<!-- 166&#45;&gt;333 -->
<g id="edge18" class="edge"><title>166&#45;&gt;333</title>
<path fill="none" stroke="black" d="M195.715,-72.055C199.854,-64.0067 204.895,-54.2046 209.512,-45.2259"/>
<polygon fill="black" stroke="black" points="212.655,-46.7689 214.116,-36.2753 206.43,-43.5675 212.655,-46.7689"/>
</g>
<!-- 12 -->
<g id="node22" class="node"><title>12</title>
<ellipse fill="none" stroke="black" cx="445" cy="-378" rx="63.8893" ry="18"/>
<text text-anchor="middle" x="445" y="-374.3" font-family="Times,serif" font-size="14.00">PROTIME&lt;43</text>
</g>
<!-- 6&#45;&gt;12 -->
<g id="edge21" class="edge"><title>6&#45;&gt;12</title>
<path fill="none" stroke="black" d="M505.677,-432.765C495.382,-423.642 482.361,-412.105 471.023,-402.059"/>
<polygon fill="black" stroke="black" points="473.303,-399.402 463.497,-395.39 468.66,-404.641 473.303,-399.402"/>
</g>
<!-- 13 -->
<g id="node23" class="node"><title>13</title>
<polygon fill="none" stroke="black" points="581,-396 527,-396 527,-360 581,-360 581,-396"/>
<text text-anchor="middle" x="554" y="-374.3" font-family="Times,serif" font-size="14.00">2</text>
</g>
<!-- 6&#45;&gt;13 -->
<g id="edge22" class="edge"><title>6&#45;&gt;13</title>
<path fill="none" stroke="black" d="M531.262,-432.055C534.675,-424.091 538.824,-414.411 542.639,-405.51"/>
<polygon fill="black" stroke="black" points="545.874,-406.845 546.596,-396.275 539.44,-404.088 545.874,-406.845"/>
</g>
<!-- 14 -->
<g id="node28" class="node"><title>14</title>
<ellipse fill="none" stroke="black" cx="697" cy="-378" rx="96.6831" ry="18"/>
<text text-anchor="middle" x="697" y="-374.3" font-family="Times,serif" font-size="14.00">ALK&#45;PHOSPHATE&lt;71</text>
</g>
<!-- 7&#45;&gt;14 -->
<g id="edge27" class="edge"><title>7&#45;&gt;14</title>
<path fill="none" stroke="black" d="M697,-431.697C697,-423.983 697,-414.712 697,-406.112"/>
<polygon fill="black" stroke="black" points="700.5,-406.104 697,-396.104 693.5,-406.104 700.5,-406.104"/>
</g>
<!-- 15 -->
<g id="node29" class="node"><title>15</title>
<ellipse fill="none" stroke="black" cx="900" cy="-378" rx="70.6878" ry="18"/>
<text text-anchor="middle" x="900" y="-374.3" font-family="Times,serif" font-size="14.00">HISTOLOGY=1</text>
</g>
<!-- 7&#45;&gt;15 -->
<g id="edge28" class="edge"><title>7&#45;&gt;15</title>
<path fill="none" stroke="black" d="M733.762,-436.324C766.242,-425.124 813.901,-408.689 849.871,-396.286"/>
<polygon fill="black" stroke="black" points="851.371,-399.471 859.684,-392.902 849.09,-392.853 851.371,-399.471"/>
</g>
<!-- 24 -->
<g id="node24" class="node"><title>24</title>
<ellipse fill="none" stroke="black" cx="363" cy="-306" rx="100.983" ry="18"/>
<text text-anchor="middle" x="363" y="-302.3" font-family="Times,serif" font-size="14.00">ALK&#45;PHOSPHATE&lt;130</text>
</g>
<!-- 12&#45;&gt;24 -->
<g id="edge23" class="edge"><title>12&#45;&gt;24</title>
<path fill="none" stroke="black" d="M425.981,-360.765C415.449,-351.773 402.168,-340.436 390.52,-330.493"/>
<polygon fill="black" stroke="black" points="392.65,-327.709 382.772,-323.878 388.105,-333.033 392.65,-327.709"/>
</g>
<!-- 25 -->
<g id="node25" class="node"><title>25</title>
<polygon fill="none" stroke="black" points="536,-324 482,-324 482,-288 536,-288 536,-324"/>
<text text-anchor="middle" x="509" y="-302.3" font-family="Times,serif" font-size="14.00">2</text>
</g>
<!-- 12&#45;&gt;25 -->
<g id="edge24" class="edge"><title>12&#45;&gt;25</title>
<path fill="none" stroke="black" d="M460.167,-360.411C467.906,-351.946 477.482,-341.472 486.098,-332.049"/>
<polygon fill="black" stroke="black" points="488.884,-334.189 493.049,-324.447 483.718,-329.465 488.884,-334.189"/>
</g>
<!-- 48 -->
<g id="node26" class="node"><title>48</title>
<polygon fill="none" stroke="black" points="332,-252 278,-252 278,-216 332,-216 332,-252"/>
<text text-anchor="middle" x="305" y="-230.3" font-family="Times,serif" font-size="14.00">1</text>
</g>
<!-- 24&#45;&gt;48 -->
<g id="edge25" class="edge"><title>24&#45;&gt;48</title>
<path fill="none" stroke="black" d="M348.96,-288.055C342.011,-279.668 333.483,-269.376 325.794,-260.096"/>
<polygon fill="black" stroke="black" points="328.389,-257.742 319.314,-252.275 322.999,-262.209 328.389,-257.742"/>
</g>
<!-- 49 -->
<g id="node27" class="node"><title>49</title>
<polygon fill="none" stroke="black" points="404,-252 350,-252 350,-216 404,-216 404,-252"/>
<text text-anchor="middle" x="377" y="-230.3" font-family="Times,serif" font-size="14.00">2</text>
</g>
<!-- 24&#45;&gt;49 -->
<g id="edge26" class="edge"><title>24&#45;&gt;49</title>
<path fill="none" stroke="black" d="M366.461,-287.697C368.003,-279.983 369.858,-270.712 371.578,-262.112"/>
<polygon fill="black" stroke="black" points="375.05,-262.597 373.579,-252.104 368.186,-261.224 375.05,-262.597"/>
</g>
<!-- 28 -->
<g id="node30" class="node"><title>28</title>
<polygon fill="none" stroke="black" points="608,-324 554,-324 554,-288 608,-288 608,-324"/>
<text text-anchor="middle" x="581" y="-302.3" font-family="Times,serif" font-size="14.00">1</text>
</g>
<!-- 14&#45;&gt;28 -->
<g id="edge29" class="edge"><title>14&#45;&gt;28</title>
<path fill="none" stroke="black" d="M669.803,-360.588C653.95,-351.022 633.772,-338.845 616.658,-328.518"/>
<polygon fill="black" stroke="black" points="618.397,-325.479 608.026,-323.309 614.78,-331.472 618.397,-325.479"/>
</g>
<!-- 29 -->
<g id="node31" class="node"><title>29</title>
<ellipse fill="none" stroke="black" cx="697" cy="-306" rx="70.6878" ry="18"/>
<text text-anchor="middle" x="697" y="-302.3" font-family="Times,serif" font-size="14.00">PROTIME&lt;40.5</text>
</g>
<!-- 14&#45;&gt;29 -->
<g id="edge30" class="edge"><title>14&#45;&gt;29</title>
<path fill="none" stroke="black" d="M697,-359.697C697,-351.983 697,-342.712 697,-334.112"/>
<polygon fill="black" stroke="black" points="700.5,-334.104 697,-324.104 693.5,-334.104 700.5,-334.104"/>
</g>
<!-- 30 -->
<g id="node40" class="node"><title>30</title>
<ellipse fill="none" stroke="black" cx="900" cy="-306" rx="107.781" ry="18"/>
<text text-anchor="middle" x="900" y="-302.3" font-family="Times,serif" font-size="14.00">ALK&#45;PHOSPHATE&lt;229.5</text>
</g>
<!-- 15&#45;&gt;30 -->
<g id="edge39" class="edge"><title>15&#45;&gt;30</title>
<path fill="none" stroke="black" d="M900,-359.697C900,-351.983 900,-342.712 900,-334.112"/>
<polygon fill="black" stroke="black" points="903.5,-334.104 900,-324.104 896.5,-334.104 903.5,-334.104"/>
</g>
<!-- 31 -->
<g id="node41" class="node"><title>31</title>
<ellipse fill="none" stroke="black" cx="1079" cy="-306" rx="50.0912" ry="18"/>
<text text-anchor="middle" x="1079" y="-302.3" font-family="Times,serif" font-size="14.00">AGE&lt;44.5</text>
</g>
<!-- 15&#45;&gt;31 -->
<g id="edge40" class="edge"><title>15&#45;&gt;31</title>
<path fill="none" stroke="black" d="M937.089,-362.496C966.196,-351.113 1006.72,-335.265 1037.02,-323.418"/>
<polygon fill="black" stroke="black" points="1038.43,-326.624 1046.47,-319.723 1035.88,-320.105 1038.43,-326.624"/>
</g>
<!-- 58 -->
<g id="node32" class="node"><title>58</title>
<ellipse fill="none" stroke="black" cx="527" cy="-234" rx="100.983" ry="18"/>
<text text-anchor="middle" x="527" y="-230.3" font-family="Times,serif" font-size="14.00">ALK&#45;PHOSPHATE&lt;171</text>
</g>
<!-- 29&#45;&gt;58 -->
<g id="edge31" class="edge"><title>29&#45;&gt;58</title>
<path fill="none" stroke="black" d="M661.362,-290.326C636.192,-279.962 602.185,-265.959 574.682,-254.634"/>
<polygon fill="black" stroke="black" points="575.829,-251.321 565.25,-250.75 573.164,-257.794 575.829,-251.321"/>
</g>
<!-- 59 -->
<g id="node33" class="node"><title>59</title>
<ellipse fill="none" stroke="black" cx="697" cy="-234" rx="48.1917" ry="18"/>
<text text-anchor="middle" x="697" y="-230.3" font-family="Times,serif" font-size="14.00">SGOT&lt;28</text>
</g>
<!-- 29&#45;&gt;59 -->
<g id="edge32" class="edge"><title>29&#45;&gt;59</title>
<path fill="none" stroke="black" d="M697,-287.697C697,-279.983 697,-270.712 697,-262.112"/>
<polygon fill="black" stroke="black" points="700.5,-262.104 697,-252.104 693.5,-262.104 700.5,-262.104"/>
</g>
<!-- 116 -->
<g id="node34" class="node"><title>116</title>
<polygon fill="none" stroke="black" points="482,-180 428,-180 428,-144 482,-144 482,-180"/>
<text text-anchor="middle" x="455" y="-158.3" font-family="Times,serif" font-size="14.00">1</text>
</g>
<!-- 58&#45;&gt;116 -->
<g id="edge33" class="edge"><title>58&#45;&gt;116</title>
<path fill="none" stroke="black" d="M509.571,-216.055C500.616,-207.349 489.551,-196.591 479.73,-187.043"/>
<polygon fill="black" stroke="black" points="482.128,-184.493 472.518,-180.032 477.248,-189.512 482.128,-184.493"/>
</g>
<!-- 117 -->
<g id="node35" class="node"><title>117</title>
<polygon fill="none" stroke="black" points="554,-180 500,-180 500,-144 554,-144 554,-180"/>
<text text-anchor="middle" x="527" y="-158.3" font-family="Times,serif" font-size="14.00">2</text>
</g>
<!-- 58&#45;&gt;117 -->
<g id="edge34" class="edge"><title>58&#45;&gt;117</title>
<path fill="none" stroke="black" d="M527,-215.697C527,-207.983 527,-198.712 527,-190.112"/>
<polygon fill="black" stroke="black" points="530.5,-190.104 527,-180.104 523.5,-190.104 530.5,-190.104"/>
</g>
<!-- 118 -->
<g id="node36" class="node"><title>118</title>
<ellipse fill="none" stroke="black" cx="627" cy="-162" rx="54.6905" ry="18"/>
<text text-anchor="middle" x="627" y="-158.3" font-family="Times,serif" font-size="14.00">SGOT&lt;21.5</text>
</g>
<!-- 59&#45;&gt;118 -->
<g id="edge35" class="edge"><title>59&#45;&gt;118</title>
<path fill="none" stroke="black" d="M680.765,-216.765C671.882,-207.882 660.709,-196.709 650.854,-186.854"/>
<polygon fill="black" stroke="black" points="653.179,-184.23 643.633,-179.633 648.23,-189.179 653.179,-184.23"/>
</g>
<!-- 119 -->
<g id="node37" class="node"><title>119</title>
<polygon fill="none" stroke="black" points="754,-180 700,-180 700,-144 754,-144 754,-180"/>
<text text-anchor="middle" x="727" y="-158.3" font-family="Times,serif" font-size="14.00">2</text>
</g>
<!-- 59&#45;&gt;119 -->
<g id="edge36" class="edge"><title>59&#45;&gt;119</title>
<path fill="none" stroke="black" d="M704.262,-216.055C707.675,-208.091 711.824,-198.411 715.639,-189.51"/>
<polygon fill="black" stroke="black" points="718.874,-190.845 719.596,-180.275 712.44,-188.088 718.874,-190.845"/>
</g>
<!-- 236 -->
<g id="node38" class="node"><title>236</title>
<polygon fill="none" stroke="black" points="618,-108 564,-108 564,-72 618,-72 618,-108"/>
<text text-anchor="middle" x="591" y="-86.3" font-family="Times,serif" font-size="14.00">2</text>
</g>
<!-- 118&#45;&gt;236 -->
<g id="edge37" class="edge"><title>118&#45;&gt;236</title>
<path fill="none" stroke="black" d="M618.285,-144.055C614.146,-136.007 609.105,-126.205 604.488,-117.226"/>
<polygon fill="black" stroke="black" points="607.57,-115.567 599.884,-108.275 601.345,-118.769 607.57,-115.567"/>
</g>
<!-- 237 -->
<g id="node39" class="node"><title>237</title>
<polygon fill="none" stroke="black" points="690,-108 636,-108 636,-72 690,-72 690,-108"/>
<text text-anchor="middle" x="663" y="-86.3" font-family="Times,serif" font-size="14.00">1</text>
</g>
<!-- 118&#45;&gt;237 -->
<g id="edge38" class="edge"><title>118&#45;&gt;237</title>
<path fill="none" stroke="black" d="M635.715,-144.055C639.854,-136.007 644.895,-126.205 649.512,-117.226"/>
<polygon fill="black" stroke="black" points="652.655,-118.769 654.116,-108.275 646.43,-115.567 652.655,-118.769"/>
</g>
<!-- 60 -->
<g id="node42" class="node"><title>60</title>
<ellipse fill="none" stroke="black" cx="847" cy="-234" rx="68.7879" ry="18"/>
<text text-anchor="middle" x="847" y="-230.3" font-family="Times,serif" font-size="14.00">ALBUMIN&lt;3.4</text>
</g>
<!-- 30&#45;&gt;60 -->
<g id="edge41" class="edge"><title>30&#45;&gt;60</title>
<path fill="none" stroke="black" d="M887.17,-288.055C880.79,-279.629 872.955,-269.28 865.903,-259.966"/>
<polygon fill="black" stroke="black" points="868.539,-257.649 859.712,-251.789 862.958,-261.874 868.539,-257.649"/>
</g>
<!-- 61 -->
<g id="node43" class="node"><title>61</title>
<polygon fill="none" stroke="black" points="988,-252 934,-252 934,-216 988,-216 988,-252"/>
<text text-anchor="middle" x="961" y="-230.3" font-family="Times,serif" font-size="14.00">1</text>
</g>
<!-- 30&#45;&gt;61 -->
<g id="edge42" class="edge"><title>30&#45;&gt;61</title>
<path fill="none" stroke="black" d="M914.766,-288.055C922.149,-279.583 931.225,-269.168 939.375,-259.815"/>
<polygon fill="black" stroke="black" points="942.015,-262.114 945.946,-252.275 936.737,-257.515 942.015,-262.114"/>
</g>
<!-- 62 -->
<g id="node48" class="node"><title>62</title>
<ellipse fill="none" stroke="black" cx="1079" cy="-234" rx="70.6878" ry="18"/>
<text text-anchor="middle" x="1079" y="-230.3" font-family="Times,serif" font-size="14.00">PROTIME&lt;87.5</text>
</g>
<!-- 31&#45;&gt;62 -->
<g id="edge47" class="edge"><title>31&#45;&gt;62</title>
<path fill="none" stroke="black" d="M1079,-287.697C1079,-279.983 1079,-270.712 1079,-262.112"/>
<polygon fill="black" stroke="black" points="1082.5,-262.104 1079,-252.104 1075.5,-262.104 1082.5,-262.104"/>
</g>
<!-- 63 -->
<g id="node49" class="node"><title>63</title>
<polygon fill="none" stroke="black" points="1222,-252 1168,-252 1168,-216 1222,-216 1222,-252"/>
<text text-anchor="middle" x="1195" y="-230.3" font-family="Times,serif" font-size="14.00">2</text>
</g>
<!-- 31&#45;&gt;63 -->
<g id="edge48" class="edge"><title>31&#45;&gt;63</title>
<path fill="none" stroke="black" d="M1103.6,-290.155C1119.57,-280.517 1140.67,-267.787 1158.57,-256.985"/>
<polygon fill="black" stroke="black" points="1160.84,-259.703 1167.59,-251.539 1157.22,-253.709 1160.84,-259.703"/>
</g>
<!-- 120 -->
<g id="node44" class="node"><title>120</title>
<ellipse fill="none" stroke="black" cx="845" cy="-162" rx="73.387" ry="18"/>
<text text-anchor="middle" x="845" y="-158.3" font-family="Times,serif" font-size="14.00">ALBUMIN&lt;3.15</text>
</g>
<!-- 60&#45;&gt;120 -->
<g id="edge43" class="edge"><title>60&#45;&gt;120</title>
<path fill="none" stroke="black" d="M846.506,-215.697C846.285,-207.983 846.02,-198.712 845.775,-190.112"/>
<polygon fill="black" stroke="black" points="849.273,-190 845.489,-180.104 842.276,-190.2 849.273,-190"/>
</g>
<!-- 121 -->
<g id="node45" class="node"><title>121</title>
<polygon fill="none" stroke="black" points="990,-180 936,-180 936,-144 990,-144 990,-180"/>
<text text-anchor="middle" x="963" y="-158.3" font-family="Times,serif" font-size="14.00">2</text>
</g>
<!-- 60&#45;&gt;121 -->
<g id="edge44" class="edge"><title>60&#45;&gt;121</title>
<path fill="none" stroke="black" d="M873.033,-217.291C888.96,-207.679 909.564,-195.246 927.035,-184.703"/>
<polygon fill="black" stroke="black" points="929.091,-187.55 935.844,-179.387 925.474,-181.557 929.091,-187.55"/>
</g>
<!-- 240 -->
<g id="node46" class="node"><title>240</title>
<polygon fill="none" stroke="black" points="836,-108 782,-108 782,-72 836,-72 836,-108"/>
<text text-anchor="middle" x="809" y="-86.3" font-family="Times,serif" font-size="14.00">2</text>
</g>
<!-- 120&#45;&gt;240 -->
<g id="edge45" class="edge"><title>120&#45;&gt;240</title>
<path fill="none" stroke="black" d="M836.285,-144.055C832.146,-136.007 827.105,-126.205 822.488,-117.226"/>
<polygon fill="black" stroke="black" points="825.57,-115.567 817.884,-108.275 819.345,-118.769 825.57,-115.567"/>
</g>
<!-- 241 -->
<g id="node47" class="node"><title>241</title>
<polygon fill="none" stroke="black" points="908,-108 854,-108 854,-72 908,-72 908,-108"/>
<text text-anchor="middle" x="881" y="-86.3" font-family="Times,serif" font-size="14.00">1</text>
</g>
<!-- 120&#45;&gt;241 -->
<g id="edge46" class="edge"><title>120&#45;&gt;241</title>
<path fill="none" stroke="black" d="M853.715,-144.055C857.854,-136.007 862.895,-126.205 867.512,-117.226"/>
<polygon fill="black" stroke="black" points="870.655,-118.769 872.116,-108.275 864.43,-115.567 870.655,-118.769"/>
</g>
<!-- 124 -->
<g id="node50" class="node"><title>124</title>
<ellipse fill="none" stroke="black" cx="1079" cy="-162" rx="70.6878" ry="18"/>
<text text-anchor="middle" x="1079" y="-158.3" font-family="Times,serif" font-size="14.00">PROTIME&lt;53.5</text>
</g>
<!-- 62&#45;&gt;124 -->
<g id="edge49" class="edge"><title>62&#45;&gt;124</title>
<path fill="none" stroke="black" d="M1079,-215.697C1079,-207.983 1079,-198.712 1079,-190.112"/>
<polygon fill="black" stroke="black" points="1082.5,-190.104 1079,-180.104 1075.5,-190.104 1082.5,-190.104"/>
</g>
<!-- 125 -->
<g id="node51" class="node"><title>125</title>
<polygon fill="none" stroke="black" points="1222,-180 1168,-180 1168,-144 1222,-144 1222,-180"/>
<text text-anchor="middle" x="1195" y="-158.3" font-family="Times,serif" font-size="14.00">1</text>
</g>
<!-- 62&#45;&gt;125 -->
<g id="edge50" class="edge"><title>62&#45;&gt;125</title>
<path fill="none" stroke="black" d="M1105.32,-217.116C1121.26,-207.498 1141.8,-195.102 1159.2,-184.601"/>
<polygon fill="black" stroke="black" points="1161.22,-187.47 1167.98,-179.307 1157.61,-181.477 1161.22,-187.47"/>
</g>
<!-- 248 -->
<g id="node52" class="node"><title>248</title>
<polygon fill="none" stroke="black" points="1070,-108 1016,-108 1016,-72 1070,-72 1070,-108"/>
<text text-anchor="middle" x="1043" y="-86.3" font-family="Times,serif" font-size="14.00">1</text>
</g>
<!-- 124&#45;&gt;248 -->
<g id="edge51" class="edge"><title>124&#45;&gt;248</title>
<path fill="none" stroke="black" d="M1070.29,-144.055C1066.15,-136.007 1061.11,-126.205 1056.49,-117.226"/>
<polygon fill="black" stroke="black" points="1059.57,-115.567 1051.88,-108.275 1053.35,-118.769 1059.57,-115.567"/>
</g>
<!-- 249 -->
<g id="node53" class="node"><title>249</title>
<polygon fill="none" stroke="black" points="1142,-108 1088,-108 1088,-72 1142,-72 1142,-108"/>
<text text-anchor="middle" x="1115" y="-86.3" font-family="Times,serif" font-size="14.00">2</text>
</g>
<!-- 124&#45;&gt;249 -->
<g id="edge52" class="edge"><title>124&#45;&gt;249</title>
<path fill="none" stroke="black" d="M1087.71,-144.055C1091.85,-136.007 1096.89,-126.205 1101.51,-117.226"/>
<polygon fill="black" stroke="black" points="1104.65,-118.769 1106.12,-108.275 1098.43,-115.567 1104.65,-118.769"/>
</g>
</g>
</svg>
